HIERARCHY
ROOT joint_Root
{
	OFFSET 0.0 0.0 0.0
	CHANNELS 6 Xposition Yposition Zposition Zrotation Xrotation Yrotation 
	JOINT Hips
	{
		OFFSET -0.726466 93.3139 -2.00062
		CHANNELS 6 Xposition Yposition Zposition Zrotation Xrotation Yrotation 
		JOINT Spine
		{
			OFFSET 15.7357 0.0 0.0
			CHANNELS 6 Xposition Yposition Zposition Zrotation Xrotation Yrotation 
			JOINT Chest
			{
				OFFSET 8.98455 -0.406207 0.0
				CHANNELS 6 Xposition Yposition Zposition Zrotation Xrotation Yrotation 
				JOINT Neck
				{
					OFFSET 16.3773 0.0 0.0
					CHANNELS 6 Xposition Yposition Zposition Zrotation Xrotation Yrotation 
					JOINT Head
					{
						OFFSET 6.45672 0.0 0.0
						CHANNELS 6 Xposition Yposition Zposition Zrotation Xrotation Yrotation 
						End Site
						{
							OFFSET 0.0 0.0 0.0
						}
					}
				}
				JOINT Shoulder_L
				{
					OFFSET 12.9942 -0.242716 4.98039
					CHANNELS 6 Xposition Yposition Zposition Zrotation Xrotation Yrotation 
					JOINT UpperArm_L
					{
						OFFSET 5.34809 0.0 0.0
						CHANNELS 6 Xposition Yposition Zposition Zrotation Xrotation Yrotation 
						JOINT LowerArm_L
						{
							OFFSET 24.3286 1.87007e-05 0.0
							CHANNELS 6 Xposition Yposition Zposition Zrotation Xrotation Yrotation 
							JOINT Hand_L
							{
								OFFSET 22.2916 0.0 0.0
								CHANNELS 6 Xposition Yposition Zposition Zrotation Xrotation Yrotation 
								End Site
								{
									OFFSET 0.0 0.0 0.0
								}
							}
						}
					}
				}
				JOINT Shoulder_R
				{
					OFFSET 12.9945 -0.242716 -4.98039
					CHANNELS 6 Xposition Yposition Zposition Zrotation Xrotation Yrotation 
					JOINT UpperArm_R
					{
						OFFSET -5.34813 0.0 0.0
						CHANNELS 6 Xposition Yposition Zposition Zrotation Xrotation Yrotation 
						JOINT LowerArm_R
						{
							OFFSET -24.3289 0.000322201 0.0
							CHANNELS 6 Xposition Yposition Zposition Zrotation Xrotation Yrotation 
							JOINT Hand_R
							{
								OFFSET -22.2915 -0.000108084 0.0
								CHANNELS 6 Xposition Yposition Zposition Zrotation Xrotation Yrotation 
								End Site
								{
									OFFSET 0.0 0.0 0.0
								}
							}
						}
					}
				}
			}
		}
		JOINT UpperLeg_L
		{
			OFFSET -2.19248 -6.46944 0.0
			CHANNELS 6 Xposition Yposition Zposition Zrotation Xrotation Yrotation 
			JOINT LowerLeg_L
			{
				OFFSET 39.0811 0.0 -1.23785e-05
				CHANNELS 6 Xposition Yposition Zposition Zrotation Xrotation Yrotation 
				JOINT Foot_L
				{
					OFFSET 40.9854 0.0 -1.26872e-05
					CHANNELS 6 Xposition Yposition Zposition Zrotation Xrotation Yrotation 
					JOINT Toes_L
					{
						OFFSET 11.7543 0.0 0.0
						CHANNELS 6 Xposition Yposition Zposition Zrotation Xrotation Yrotation 
						End Site
						{
							OFFSET 0.0 0.0 0.0
						}
					}
				}
			}
		}
		JOINT UpperLeg_R
		{
			OFFSET -2.19251 6.46944 0.0
			CHANNELS 6 Xposition Yposition Zposition Zrotation Xrotation Yrotation 
			JOINT LowerLeg_R
			{
				OFFSET -39.0811 -0.00228153 -0.0401928
				CHANNELS 6 Xposition Yposition Zposition Zrotation Xrotation Yrotation 
				JOINT Foot_R
				{
					OFFSET -40.9854 0.0 0.0
					CHANNELS 6 Xposition Yposition Zposition Zrotation Xrotation Yrotation 
					JOINT Toes_R
					{
						OFFSET -11.7543 0.0 0.0
						CHANNELS 6 Xposition Yposition Zposition Zrotation Xrotation Yrotation 
						End Site
						{
							OFFSET 0.0 0.0 0.0
						}
					}
				}
			}
		}
	}
}
MOTION
Frames:	4
Frame Time:	0.0333333
0.000000 0.000000 0.000000 0.000000 0.000000 -0.000000 -0.833049 92.424300 -2.707390 88.227300 0.314291 4.629570 15.735700 0.000005 -0.000001 81.257300 86.177800 -80.803700 8.984550 -0.406207 -0.000000 -0.205375 -1.193210 0.904532 16.377300 -0.000001 -0.000001 3.653830 -1.942590 0.404456 6.456720 -0.000001 -0.000000 4.757350 -2.029410 -1.978730 12.994200 -0.242716 4.980390 -88.353500 -5.236990 -72.519000 5.348090 -0.000007 -0.000001 -81.491400 -29.747700 -76.880000 24.328600 0.000019 0.000005 14.195400 -1.981430 -97.783500 22.291600 -0.000001 0.000005 21.656700 5.611240 -12.038700 12.994500 -0.242716 -4.980390 89.933000 0.217372 -72.866900 -5.348130 -0.000001 -0.000004 -72.090300 -24.355300 -83.603200 -24.328900 0.000322 -0.000009 19.686600 -1.606250 -94.480300 -22.291500 -0.000108 -0.000004 25.698000 5.423120 -3.704140 -2.192480 -6.469440 -0.000000 -175.755000 -6.026100 -3.410560 39.081100 -0.000007 -0.000012 -0.091767 0.218167 22.813100 40.985400 -0.000006 -0.000013 -0.196399 3.478770 -65.034700 11.754300 -0.000000 0.000003 -0.000037 -0.000440 -16.594700 -2.192510 6.469440 -0.000001 179.640000 15.885300 179.972000 -39.081100 -0.002282 -0.040193 -0.014201 0.049780 19.393100 -40.985400 0.000008 0.000006 3.911860 5.953940 -65.218300 -11.754300 -0.000006 -0.000006 -0.006824 -0.078145 -19.754200
0.000000 0.000000 0.000000 0.000000 0.000000 -0.000000 -0.815202 92.430400 -2.718460 88.210700 0.276335 4.567170 15.735700 0.000005 -0.000001 81.468300 86.186500 -80.987100 8.984550 -0.406207 -0.000000 -0.218195 -1.164790 0.959688 16.377300 -0.000001 -0.000001 3.568470 -1.966070 0.469991 6.456720 -0.000001 -0.000000 4.832810 -2.096740 -1.972160 12.994200 -0.242716 4.980390 -88.358100 -5.228110 -72.537800 5.348090 -0.000007 -0.000001 -81.383900 -29.764300 -76.816300 24.328600 0.000019 0.000005 14.193900 -2.012610 -97.905200 22.291600 -0.000001 0.000005 21.581400 5.612410 -12.114200 12.994500 -0.242716 -4.980390 89.941100 0.190792 -72.860900 -5.348130 -0.000001 -0.000004 -72.097000 -24.312800 -83.761600 -24.328900 0.000322 -0.000009 19.860700 -1.635760 -94.519100 -22.291500 -0.000108 -0.000004 25.683200 5.420320 -3.609980 -2.192480 -6.469440 -0.000000 -175.756000 -6.040800 -3.469130 39.081100 -0.000007 -0.000012 -0.092098 0.219178 22.792000 40.985400 -0.000006 -0.000013 -0.189160 3.459070 -65.016900 11.754300 -0.000000 0.000003 -0.000046 -0.000523 -16.597900 -2.192510 6.469440 -0.000001 179.682000 15.803500 179.915000 -39.081100 -0.002282 -0.040193 -0.011432 0.042006 19.353300 -40.985400 0.000008 0.000006 3.972780 5.946500 -65.196700 -11.754300 -0.000006 -0.000006 -0.006882 -0.078645 -19.774600
0.000000 0.000000 0.000000 0.000000 0.000000 -0.000000 -0.799490 92.437200 -2.712240 88.241300 0.226962 4.560100 15.735700 0.000005 -0.000001 81.772700 86.173700 -81.284000 8.984550 -0.406207 -0.000000 -0.187070 -1.128750 0.974995 16.377300 -0.000001 -0.000001 3.484930 -2.001820 0.539143 6.456720 -0.000001 -0.000000 4.934210 -2.142240 -1.915840 12.994200 -0.242716 4.980390 -88.363300 -5.213640 -72.543900 5.348090 -0.000007 -0.000001 -81.301000 -29.800000 -76.842400 24.328600 0.000019 0.000005 14.153800 -2.028720 -97.990900 22.291600 -0.000001 0.000005 21.479700 5.611210 -12.036800 12.994500 -0.242716 -4.980390 89.942300 0.187071 -72.854500 -5.348130 -0.000001 -0.000004 -72.048500 -24.301500 -83.903200 -24.328900 0.000322 -0.000009 19.769400 -1.629620 -94.524600 -22.291500 -0.000108 -0.000004 25.720100 5.418830 -3.559650 -2.192480 -6.469440 -0.000000 -175.789000 -6.080680 -3.427280 39.081100 -0.000007 -0.000012 -0.092542 0.221060 22.715600 40.985400 -0.000006 -0.000013 -0.185847 3.457420 -64.986600 11.754300 -0.000000 0.000003 -0.000039 -0.000458 -16.595400 -2.192510 6.469440 -0.000001 179.650000 15.795300 179.915000 -39.081100 -0.002282 -0.040193 -0.010477 0.039324 19.337000 -40.985400 0.000008 0.000006 4.004020 5.947120 -65.190000 -11.754300 -0.000006 -0.000006 -0.006784 -0.077796 -19.740000
0.000000 0.000000 0.000000 0.000000 0.000000 -0.000000 -0.779852 92.440100 -2.710640 88.246700 0.240864 4.547460 15.735700 0.000005 -0.000001 81.858700 86.158100 -81.354800 8.984550 -0.406207 -0.000000 -0.154344 -1.122720 1.005700 16.377300 -0.000001 -0.000001 3.450420 -2.052430 0.620089 6.456720 -0.000001 -0.000000 4.943240 -2.180940 -1.871020 12.994200 -0.242716 4.980390 -88.365000 -5.200090 -72.519100 5.348090 -0.000007 -0.000001 -81.237000 -29.810200 -76.925700 24.328600 0.000019 0.000005 14.208600 -2.049850 -98.041000 22.291600 -0.000001 0.000005 21.515200 5.610270 -11.976500 12.994500 -0.242716 -4.980390 89.938600 0.198367 -72.811700 -5.348130 -0.000001 -0.000004 -71.907400 -24.319000 -84.013200 -24.328900 0.000322 -0.000009 19.561200 -1.601850 -94.499000 -22.291500 -0.000108 -0.000004 25.853500 5.421340 -3.644240 -2.192480 -6.469440 -0.000000 -175.823000 -6.002440 -3.428110 39.081100 -0.000007 -0.000012 -0.091947 0.219878 22.693300 40.985400 -0.000006 -0.000013 -0.187591 3.374890 -64.979600 11.754300 -0.000000 0.000003 -0.000038 -0.000443 -16.594800 -2.192510 6.469440 -0.000001 179.642000 15.756300 179.911000 -39.081100 -0.002282 -0.040193 -0.009382 0.036233 19.322700 -40.985400 0.000008 0.000006 4.015170 5.923190 -65.185500 -11.754300 -0.000006 -0.000006 -0.006825 -0.078155 -19.754600
